<svg width="566" height="421" viewBox="0 0 566 421" fill="none" xmlns="http://www.w3.org/2000/svg">
<g clip-path="url(#clip0_2751_6677)">
<path d="M509.008 388.618H471.582V388.9H509.008V388.618Z" fill="#EBEBEB"/>
<path d="M374.9 391.688H365.08V391.97H374.9V391.688Z" fill="#EBEBEB"/>
<path d="M470.452 378.142H448.768V378.424H470.452V378.142Z" fill="#EBEBEB"/>
<path d="M108.705 380.038H59.9004V380.321H108.705V380.038Z" fill="#EBEBEB"/>
<path d="M125.926 380.038H118.773V380.321H125.926V380.038Z" fill="#EBEBEB"/>
<path d="M255.04 384.802H149.182V385.084H255.04V384.802Z" fill="#EBEBEB"/>
<path d="M270.013 320.108H51.8097C48.2502 320.108 45.3574 317.218 45.3574 313.662V7.25814C45.3574 3.70227 48.2502 0.812408 51.8097 0.812408H270.013C273.572 0.812408 276.465 3.70227 276.465 7.25814V313.662C276.465 317.218 273.572 320.108 270.013 320.108ZM51.8097 1.09462C48.4084 1.09462 45.6399 3.8603 45.6399 7.25814V313.662C45.6399 317.06 48.4084 319.826 51.8097 319.826H270.013C273.414 319.826 276.183 317.06 276.183 313.662V7.25814C276.183 3.8603 273.414 1.09462 270.013 1.09462H51.8097Z" fill="#EBEBEB"/>
<path d="M514.433 320.108H296.23C292.67 320.108 289.777 317.218 289.777 313.662V7.25814C289.777 3.70227 292.67 0.812408 296.23 0.812408H514.433C517.992 0.812408 520.885 3.70227 520.885 7.25814V313.662C520.885 317.218 517.992 320.108 514.433 320.108ZM296.23 1.09462C292.828 1.09462 290.06 3.8603 290.06 7.25814V313.662C290.06 317.06 292.828 319.826 296.23 319.826H514.433C517.834 319.826 520.602 317.06 520.602 313.662V7.25814C520.602 3.8603 517.834 1.09462 514.433 1.09462H296.23Z" fill="#EBEBEB"/>
<path d="M565.621 370.454H0.621094V370.737H565.621V370.454Z" fill="#EBEBEB"/>
<path d="M135.463 294.088C134.514 283.183 123.372 279.108 110.162 280.259C96.9639 281.411 86.7035 287.371 87.6527 298.264L135.463 294.088Z" fill="#F0F0F0"/>
<path d="M109.733 275.27C115.858 274.739 117.813 269.569 117.282 263.439C116.751 257.321 113.926 252.569 107.79 253.099C101.665 253.63 99.7103 258.8 100.241 264.929C100.772 271.048 103.597 275.8 109.733 275.27Z" fill="#F0F0F0"/>
<path d="M384.933 61.7929C385.227 65.1682 382.73 68.1483 379.351 68.4418C375.972 68.7353 372.989 66.2406 372.695 62.8653C372.402 59.49 374.899 56.5099 378.278 56.2164C381.656 55.9229 384.639 58.4176 384.933 61.7929Z" fill="#F5F5F5"/>
<path d="M418.912 58.824C419.206 62.1993 416.708 65.1794 413.33 65.4729C409.951 65.7664 406.968 63.2717 406.674 59.8964C406.38 56.5212 408.877 53.541 412.256 53.2475C415.635 52.954 418.618 55.4488 418.912 58.824Z" fill="#F5F5F5"/>
<path d="M452.902 55.8551C453.196 59.2304 450.698 62.2106 447.32 62.5041C443.941 62.7976 440.958 60.3028 440.664 56.9276C440.37 53.5523 442.868 50.5721 446.246 50.2786C449.625 49.9851 452.608 52.4799 452.902 55.8551Z" fill="#F5F5F5"/>
<path d="M387.963 96.3922C388.256 99.7674 385.759 102.748 382.38 103.041C379.002 103.335 376.018 100.84 375.725 97.4646C375.431 94.0893 377.928 91.1091 381.307 90.8156C384.686 90.5221 387.669 93.0169 387.963 96.3922Z" fill="#F5F5F5"/>
<path d="M421.941 93.4233C422.235 96.7985 419.738 99.7787 416.359 100.072C412.98 100.366 409.997 97.8709 409.703 94.4957C409.409 91.1204 411.907 88.1403 415.285 87.8468C418.664 87.5533 421.647 90.048 421.941 93.4233Z" fill="#F5F5F5"/>
<path d="M455.931 90.4544C456.225 93.8297 453.728 96.8098 450.349 97.1033C446.97 97.3968 443.987 94.9021 443.693 91.5268C443.4 88.1515 445.897 85.1714 449.276 84.8779C452.654 84.5844 455.637 87.0791 455.931 90.4544Z" fill="#F5F5F5"/>
<path d="M390.99 130.991C391.284 134.367 388.786 137.347 385.408 137.64C382.029 137.934 379.046 135.439 378.752 132.064C378.458 128.689 380.955 125.708 384.334 125.415C387.713 125.121 390.696 127.616 390.99 130.991Z" fill="#F5F5F5"/>
<path d="M424.98 128.023C425.274 131.398 422.777 134.378 419.398 134.671C416.019 134.965 413.036 132.47 412.742 129.095C412.448 125.72 414.946 122.74 418.324 122.446C421.703 122.153 424.686 124.647 424.98 128.023Z" fill="#F5F5F5"/>
<path d="M458.959 125.054C459.252 128.429 456.755 131.409 453.376 131.703C449.998 131.996 447.015 129.501 446.721 126.126C446.427 122.751 448.924 119.771 452.303 119.477C455.682 119.184 458.665 121.678 458.959 125.054Z" fill="#F5F5F5"/>
<path d="M451.614 127.052L381.792 133.159L443.693 58.0112L380.266 63.5539C379.52 63.6216 378.876 63.0685 378.808 62.3347C378.741 61.5897 379.294 60.9463 380.029 60.8785L449.851 54.7714L387.95 129.919L451.377 124.376C452.123 124.309 452.767 124.862 452.835 125.596C452.902 126.341 452.349 126.984 451.614 127.052Z" fill="#E6E6E6"/>
<path d="M452.69 261.182C452.464 260.516 451.865 260.019 451.164 259.974C447.966 259.759 445.254 258.563 443.119 256.418C440.328 253.618 438.689 249.351 438.418 244.294C438.373 243.346 437.582 242.612 436.633 242.612C435.582 242.612 434.757 243.493 434.813 244.531C435.141 250.469 437.141 255.537 440.565 258.969C443.232 261.645 446.678 263.214 450.599 263.552C450.667 263.552 450.758 263.564 450.859 263.575C452.159 263.676 453.142 262.412 452.712 261.182H452.69Z" fill="#F0F0F0"/>
<path d="M449.072 282.856C434.1 281.546 423.297 271.353 419.873 255.436C419.659 254.42 420.303 253.426 421.331 253.246C422.28 253.077 423.195 253.686 423.399 254.623C426.461 268.937 436.077 278.103 449.389 279.266C463.988 280.541 479.662 270.946 482.464 246.766C482.577 245.784 483.436 245.062 484.419 245.152C485.425 245.242 486.182 246.134 486.057 247.139C483.368 269.942 468.362 284.56 449.061 282.867L449.072 282.856Z" fill="#F0F0F0"/>
<path d="M420.824 239.576C419.818 239.485 419.061 238.593 419.185 237.589C421.875 214.786 436.881 200.167 456.181 201.861C473.086 203.339 484.477 215.983 486.262 235.026C486.352 236.031 485.573 236.911 484.567 236.968C483.584 237.024 482.748 236.279 482.657 235.308C481.03 218.15 470.883 206.782 455.876 205.462C441.277 204.186 425.604 213.781 422.801 237.961C422.688 238.943 421.829 239.666 420.846 239.576H420.824Z" fill="#F0F0F0"/>
<path d="M449.807 273.181C447.027 272.933 444.417 272.29 442.01 271.24C441.038 270.811 440.631 269.637 441.14 268.711C441.581 267.898 442.575 267.548 443.423 267.921C445.671 268.914 448.169 269.49 450.847 269.637C461.921 270.269 473.605 262.435 474.746 243.515C475.447 231.854 471.458 222.44 463.989 217.935C463.186 217.45 462.892 216.445 463.299 215.599C463.763 214.65 464.96 214.301 465.864 214.842C474.498 220.046 479.142 230.68 478.351 243.718C477.243 261.972 465.853 274.107 450.632 273.238C450.349 273.227 450.067 273.204 449.784 273.181H449.807Z" fill="#F0F0F0"/>
<path d="M433.716 261.927C432.846 262.525 431.648 262.243 431.117 261.328C427.908 255.797 426.416 248.651 426.88 240.987C427.931 223.523 438.417 211.659 452.644 211.433C453.695 211.411 454.553 212.302 454.497 213.352C454.44 214.301 453.683 215.034 452.734 215.057C442.18 215.26 431.58 223.23 430.496 241.212C430.078 248.189 431.411 254.634 434.27 259.567C434.744 260.38 434.496 261.407 433.716 261.938V261.927Z" fill="#F0F0F0"/>
<path d="M458.418 260.448C458.045 259.613 458.372 258.642 459.152 258.168C463.898 255.312 466.825 249.306 466.87 242.082C466.904 236.291 465.232 231.391 462.135 228.287C459.751 225.894 456.666 224.686 452.96 224.697C447.389 224.709 442.88 227.756 440.383 233.13C439.987 233.976 439.016 234.372 438.134 234.055C437.14 233.694 436.665 232.543 437.117 231.583C440.213 224.991 446.01 221.108 452.96 221.085C457.593 221.085 461.649 222.688 464.7 225.747C468.486 229.54 470.543 235.354 470.497 242.115C470.441 250.65 466.847 257.806 460.983 261.306C460.056 261.859 458.858 261.441 458.418 260.459V260.448Z" fill="#F0F0F0"/>
<path d="M445.4 247.173C444.372 247.59 443.219 246.992 442.959 245.92C442.835 245.434 442.745 244.926 442.666 244.407C441.637 237.656 445.276 231.775 451.118 230.725C454.135 230.183 456.824 230.895 458.881 232.723C459.717 233.468 459.649 234.8 458.745 235.444L458.632 235.523C457.943 236.008 457.05 235.907 456.406 235.354C455.175 234.304 453.627 233.943 451.762 234.27C447.31 235.06 445.615 239.688 446.248 243.854C446.304 244.26 446.383 244.655 446.474 245.028C446.688 245.908 446.248 246.823 445.4 247.161V247.173Z" fill="#F0F0F0"/>
<path d="M451.378 254.126C451.378 254.126 451.378 254.126 451.367 254.126C450.124 254.013 449.434 252.625 450.101 251.564L450.259 251.316C450.598 250.785 451.186 250.491 451.819 250.537C452.35 250.571 452.926 250.537 453.514 250.435C457.401 249.735 459.186 246.123 459.152 242.443C459.152 241.528 459.785 240.738 460.689 240.591C461.751 240.433 462.757 241.224 462.768 242.296C462.881 248.189 459.401 253.054 454.147 253.991C453.197 254.16 452.271 254.205 451.389 254.126H451.378Z" fill="#F0F0F0"/>
<path d="M452.18 247.455C450.259 247.286 448.823 245.987 448.292 244.136C447.987 243.064 448.891 242.025 449.999 242.127L450.417 242.161C451.061 242.217 451.592 242.657 451.807 243.267C451.908 243.56 452.112 243.82 452.485 243.854C453.355 243.933 453.502 242.68 453.524 242.432C453.536 242.251 453.581 241.562 453.276 241.156C452.982 240.761 452.79 240.298 452.824 239.801C452.959 238.198 454.993 237.544 456.022 238.797C456.835 239.79 457.253 241.178 457.118 242.748C456.858 245.705 454.767 247.681 452.157 247.455H452.18Z" fill="#F0F0F0"/>
<path d="M418.191 207.053C417.197 206.963 416.462 206.094 416.552 205.1L417.92 189.443L433.593 190.809C434.587 190.899 435.322 191.769 435.231 192.762C435.141 193.755 434.271 194.489 433.276 194.399L421.208 193.349L420.157 205.405C420.067 206.399 419.197 207.132 418.202 207.042L418.191 207.053Z" fill="#F0F0F0"/>
<path d="M492.691 213.567C491.696 213.477 490.962 212.607 491.052 211.614L492.103 199.558L480.035 198.508C479.04 198.418 478.306 197.548 478.396 196.555C478.487 195.562 479.357 194.828 480.351 194.918L496.024 196.284L494.657 211.941C494.567 212.935 493.696 213.668 492.702 213.578L492.691 213.567Z" fill="#F0F0F0"/>
<path d="M487.143 297.723L471.47 296.357C470.476 296.266 469.741 295.397 469.832 294.404C469.922 293.41 470.792 292.677 471.787 292.767L483.855 293.817L484.906 281.761C484.996 280.767 485.866 280.034 486.861 280.124C487.855 280.214 488.59 281.083 488.499 282.077L487.132 297.734L487.143 297.723Z" fill="#F0F0F0"/>
<path d="M424.71 292.259L409.037 290.893L410.404 275.236C410.495 274.243 411.365 273.509 412.359 273.599C413.354 273.689 414.088 274.559 413.998 275.552L412.947 287.608L425.015 288.658C426.01 288.748 426.744 289.617 426.654 290.611C426.563 291.604 425.693 292.338 424.699 292.248L424.71 292.259Z" fill="#F0F0F0"/>
<path d="M85.0664 258.382C84.4562 258.439 83.9138 257.987 83.8573 257.377L83.0098 247.748L92.6487 246.902C93.2589 246.845 93.8013 247.297 93.8578 247.906C93.9143 248.516 93.4623 249.058 92.8521 249.114L85.4393 249.758L86.0834 257.163C86.1399 257.773 85.6879 258.314 85.0777 258.371L85.0664 258.382Z" fill="#E0E0E0"/>
<path d="M130.876 254.386C130.266 254.442 129.724 253.991 129.667 253.381L129.023 245.976L121.61 246.62C121 246.676 120.458 246.224 120.401 245.615C120.345 245.005 120.797 244.463 121.407 244.407L131.046 243.56L131.893 253.189C131.95 253.799 131.498 254.341 130.888 254.397L130.876 254.386Z" fill="#E0E0E0"/>
<path d="M135.622 295.826L125.983 296.673C125.373 296.729 124.831 296.278 124.774 295.668C124.718 295.059 125.17 294.517 125.78 294.46L133.193 293.817L132.549 286.411C132.492 285.802 132.944 285.26 133.554 285.204C134.165 285.147 134.707 285.599 134.763 286.208L135.611 295.837L135.622 295.826Z" fill="#E0E0E0"/>
<path d="M97.2255 299.179L87.5866 300.025L86.7391 290.396C86.6826 289.787 87.1346 289.245 87.7448 289.188C88.355 289.132 88.8974 289.584 88.9539 290.193L89.598 297.598L97.0108 296.955C97.621 296.899 98.1634 297.35 98.2199 297.96C98.2764 298.569 97.8244 299.111 97.2142 299.167L97.2255 299.179Z" fill="#E0E0E0"/>
<path d="M130.096 97.8935L93.2239 101.111L92.4668 92.4863C91.6871 83.5458 98.3315 75.6326 107.281 74.8537C116.231 74.0748 124.152 80.7124 124.932 89.6529L125.372 94.665L130.695 94.2022L130.254 89.1901C129.214 77.3146 118.694 68.4983 106.818 69.5368C94.9302 70.5754 86.1049 81.085 87.1445 92.9492L87.9016 101.619C83.6076 102.454 80.5566 106.405 80.9408 110.853L83.5737 140.925C83.9918 145.678 88.1841 149.2 92.9527 148.782L134.232 145.17C138.989 144.752 142.515 140.564 142.096 135.8L139.464 105.728C139.045 100.975 134.853 97.4533 130.085 97.871L130.096 97.8935ZM114.434 121.069L115.338 131.42C115.485 133.125 114.231 134.615 112.524 134.773C110.818 134.92 109.326 133.667 109.168 131.962L108.264 121.611C106.908 120.775 105.948 119.353 105.79 117.648C105.541 114.792 107.654 112.264 110.524 112.015C113.383 111.767 115.914 113.878 116.163 116.745C116.31 118.45 115.609 120.019 114.423 121.08L114.434 121.069Z" fill="#EBEBEB"/>
<path d="M193.219 115.323L189.49 109.25C187.467 109.532 185.817 109.532 183.794 109.25L180.065 115.323L179.354 115.131C176.947 114.488 174.63 113.528 172.461 112.275L171.816 111.903L173.398 105.31C173.523 104.78 174.065 104.452 174.596 104.576C175.127 104.7 175.455 105.242 175.331 105.773L174.099 110.909C175.715 111.79 177.399 112.49 179.15 113.009L182.789 107.082L183.444 107.195C185.557 107.545 187.704 107.545 189.817 107.195L190.473 107.082L194.111 113.009C195.852 112.49 197.547 111.79 199.162 110.909L197.547 104.159L198.089 103.775C199.569 102.714 200.88 101.461 202.01 100.038C202.349 99.6207 202.948 99.5191 203.377 99.8352C203.829 100.163 203.942 100.806 203.592 101.246C202.485 102.646 201.208 103.899 199.784 104.994L201.445 111.914L200.801 112.286C198.631 113.539 196.315 114.499 193.919 115.142L193.207 115.334L193.219 115.323ZM170.37 102.07C170.054 101.709 169.749 101.348 169.466 100.964L162.539 102.623L162.166 101.98C160.912 99.8126 159.951 97.4984 159.307 95.094L159.115 94.3828L165.195 90.6576C165.059 89.6416 164.991 88.716 164.991 87.8129C164.991 86.9098 165.059 85.9842 165.195 84.9682L159.115 81.243L159.307 80.5318C159.951 78.1274 160.912 75.8132 162.166 73.6458L162.539 73.0024L169.466 74.6618C170.63 73.1491 171.975 71.8058 173.489 70.6431L172.235 65.4052C172.11 64.8747 172.438 64.3328 172.969 64.2086C173.5 64.0845 174.043 64.4118 174.167 64.9424L175.726 71.4671L175.184 71.8622C173.444 73.1153 171.929 74.6279 170.675 76.3664L170.291 76.9082L163.522 75.2939C162.652 76.9082 161.94 78.5902 161.432 80.3399L167.364 83.9748L167.263 84.6295C167.07 85.7923 166.98 86.8308 166.98 87.8129C166.98 88.795 167.07 89.8335 167.263 90.9963L167.376 91.651L161.443 95.2859C161.963 97.0243 162.663 98.7176 163.534 100.332L170.302 98.7176L170.686 99.2594C171.059 99.7674 171.444 100.264 171.862 100.738C172.212 101.133 172.201 101.72 171.816 102.093L171.783 102.127C171.387 102.511 170.743 102.477 170.381 102.059L170.37 102.07ZM210.756 102.623L208.202 102.014C207.671 101.89 207.344 101.348 207.468 100.817C207.592 100.287 208.135 99.9593 208.666 100.083L209.773 100.343C210.643 98.7289 211.355 97.0469 211.864 95.2972L205.931 91.6623L206.044 91.0075C206.236 89.8448 206.327 88.8063 206.327 87.8242C206.327 86.8421 206.236 85.8035 206.044 84.6408L205.942 83.9861L211.875 80.3512C211.355 78.6128 210.655 76.9195 209.784 75.3052L203.016 76.9195L202.62 76.3776C201.366 74.6392 199.852 73.1266 198.112 71.8735L197.569 71.4784L199.185 64.7166C197.569 63.8361 195.885 63.1362 194.134 62.617L190.495 68.5434L189.84 68.4418C187.727 68.1032 185.58 68.1032 183.467 68.4418L182.811 68.5434L179.173 62.617C178.947 62.6847 178.721 62.7524 178.495 62.8314C177.986 63.0008 177.444 62.7298 177.263 62.2331C177.071 61.7139 177.342 61.1269 177.873 60.9463C178.37 60.7882 178.868 60.6415 179.365 60.506L180.077 60.3141L183.806 66.3873C185.828 66.1051 187.467 66.1051 189.501 66.3873L193.23 60.3141L193.942 60.506C196.349 61.1495 198.665 62.109 200.824 63.362L201.468 63.7345L199.807 70.6544C201.321 71.8171 202.665 73.1604 203.829 74.6731L210.756 73.0137L211.129 73.6571C212.383 75.8245 213.344 78.1386 213.988 80.5431L214.18 81.2543L208.101 84.9795C208.236 85.9954 208.304 86.9324 208.304 87.8242C208.304 88.716 208.236 89.6529 208.101 90.6689L214.18 94.3941L213.988 95.1053C213.344 97.5097 212.383 99.8239 211.129 101.991L210.756 102.635V102.623ZM186.371 97.4984C181.32 97.3517 177.116 93.1524 176.969 88.1064C176.822 83.0266 180.63 78.7821 185.535 78.2064C186.122 78.1386 186.653 78.6015 186.653 79.1998C186.653 79.6965 186.28 80.1254 185.783 80.1819C181.455 80.6673 178.201 84.765 179.105 89.3707C179.693 92.3622 182.111 94.7779 185.105 95.3649C190.021 96.3244 194.349 92.5654 194.349 87.8242C194.349 86.2325 193.863 84.6973 192.959 83.4104C192.676 83.004 192.755 82.4509 193.128 82.1235C193.58 81.7284 194.27 81.8074 194.609 82.3041C195.739 83.9184 196.337 85.8487 196.337 87.8355C196.337 93.2652 191.84 97.6678 186.371 97.5097V97.4984Z" fill="#F0F0F0"/>
<path d="M123.012 197.955L120.605 194.038C119.306 194.218 118.232 194.218 116.933 194.038L114.526 197.955L114.062 197.831C112.514 197.413 111.011 196.792 109.61 195.991L109.192 195.754L110.209 191.498C110.288 191.148 110.638 190.945 110.989 191.024C111.339 191.103 111.542 191.453 111.463 191.803L110.661 195.121C111.701 195.686 112.797 196.137 113.927 196.476L116.277 192.649L116.707 192.717C118.074 192.943 119.464 192.943 120.82 192.717L121.249 192.649L123.6 196.476C124.73 196.137 125.826 195.686 126.865 195.121L125.814 190.753L126.165 190.504C127.125 189.816 127.973 189.014 128.696 188.089C128.911 187.818 129.295 187.75 129.577 187.953C129.871 188.168 129.939 188.585 129.713 188.868C128.99 189.771 128.165 190.583 127.249 191.283L128.323 195.754L127.905 195.991C126.504 196.803 125.012 197.424 123.453 197.831L122.989 197.955H123.012ZM108.254 189.398C108.051 189.172 107.859 188.924 107.667 188.687L103.192 189.759L102.954 189.342C102.141 187.942 101.519 186.452 101.113 184.894L100.988 184.431L104.909 182.027C104.819 181.372 104.774 180.774 104.774 180.187C104.774 179.6 104.819 179.001 104.909 178.347L100.988 175.942L101.113 175.479C101.531 173.933 102.152 172.431 102.954 171.032L103.192 170.614L107.667 171.686C108.412 170.704 109.294 169.835 110.266 169.09L109.452 165.704C109.373 165.365 109.576 165.015 109.927 164.936C110.266 164.857 110.616 165.06 110.695 165.41L111.701 169.621L111.35 169.88C110.232 170.682 109.249 171.664 108.435 172.793L108.186 173.143L103.813 172.093C103.248 173.131 102.796 174.226 102.457 175.355L106.288 177.703L106.22 178.132C106.096 178.889 106.039 179.555 106.039 180.187C106.039 180.819 106.096 181.496 106.22 182.241L106.288 182.67L102.457 185.018C102.796 186.147 103.248 187.242 103.813 188.281L108.186 187.231L108.435 187.581C108.672 187.908 108.932 188.235 109.192 188.54C109.418 188.8 109.407 189.172 109.169 189.409L109.147 189.432C108.887 189.68 108.48 189.658 108.243 189.387L108.254 189.398ZM134.346 189.759L132.696 189.364C132.346 189.285 132.142 188.935 132.221 188.585C132.301 188.235 132.651 188.032 133.001 188.111L133.713 188.281C134.278 187.242 134.73 186.147 135.069 185.018L131.238 182.67L131.306 182.241C131.43 181.485 131.487 180.819 131.487 180.187C131.487 179.555 131.43 178.877 131.306 178.132L131.238 177.703L135.069 175.355C134.73 174.226 134.278 173.131 133.713 172.093L129.34 173.143L129.091 172.793C128.289 171.675 127.306 170.693 126.176 169.88L125.826 169.621L126.877 165.252C125.837 164.688 124.741 164.236 123.611 163.897L121.26 167.724L120.831 167.656C119.464 167.431 118.074 167.431 116.707 167.656L116.277 167.724L113.927 163.897C113.78 163.943 113.633 163.988 113.486 164.033C113.158 164.134 112.808 163.965 112.695 163.638C112.571 163.299 112.752 162.915 113.091 162.814C113.407 162.712 113.735 162.61 114.051 162.531L114.514 162.407L116.921 166.324C118.232 166.144 119.283 166.144 120.594 166.324L123.001 162.407L123.464 162.531C125.012 162.949 126.515 163.57 127.916 164.372L128.334 164.609L127.261 169.079C128.244 169.824 129.114 170.704 129.86 171.675L134.335 170.603L134.572 171.02C135.385 172.42 136.007 173.91 136.414 175.468L136.538 175.931L132.617 178.335C132.707 178.99 132.753 179.588 132.753 180.175C132.753 180.762 132.707 181.361 132.617 182.015L136.538 184.42L136.414 184.883C135.996 186.429 135.374 187.931 134.572 189.33L134.335 189.748L134.346 189.759ZM118.594 186.452C115.328 186.362 112.616 183.641 112.514 180.39C112.424 177.105 114.876 174.362 118.051 174.001C118.435 173.955 118.774 174.26 118.774 174.644C118.774 174.971 118.537 175.242 118.209 175.276C115.418 175.592 113.317 178.234 113.893 181.214C114.277 183.144 115.836 184.702 117.769 185.086C120.944 185.707 123.735 183.28 123.735 180.221C123.735 179.193 123.419 178.2 122.831 177.365C122.65 177.105 122.696 176.744 122.933 176.529C123.227 176.27 123.667 176.326 123.893 176.642C124.617 177.681 125.012 178.934 125.012 180.209C125.012 183.72 122.108 186.553 118.571 186.463L118.594 186.452Z" fill="#E6E6E6"/>
<path d="M283.121 420.812C404.124 420.812 502.217 415.091 502.217 408.034C502.217 400.976 404.124 395.255 283.121 395.255C162.118 395.255 64.0254 400.976 64.0254 408.034C64.0254 415.091 162.118 420.812 283.121 420.812Z" fill="#F5F5F5"/>
<path d="M411.319 103.391H374.526L348.502 400.561H385.295C395.759 400.561 405.013 392.061 405.929 381.607L428.63 122.356C429.546 111.903 421.782 103.402 411.319 103.402V103.391Z" fill="#407BFF"/>
<path d="M403.816 103.391H279.29C268.826 103.391 259.571 111.891 258.656 122.344L235.954 381.596C235.039 392.049 242.802 400.55 253.266 400.55H377.792C388.256 400.55 397.51 392.049 398.426 381.596L421.127 122.344C422.043 111.891 414.279 103.391 403.816 103.391Z" fill="#407BFF"/>
<path opacity="0.3" d="M403.816 103.391H279.29C268.826 103.391 259.571 111.891 258.656 122.344L235.954 381.596C235.039 392.049 242.802 400.55 253.266 400.55H377.792C388.256 400.55 397.51 392.049 398.426 381.596L421.127 122.344C422.043 111.891 414.279 103.391 403.816 103.391Z" fill="white"/>
<path opacity="0.4" d="M403.284 109.464H370.458C368.525 109.464 366.706 110.729 365.983 112.591C363.327 119.443 356.604 124.139 349.451 124.139H330.037C322.873 124.139 316.975 119.443 315.528 112.591C315.133 110.74 313.539 109.464 311.607 109.464H278.781C271.662 109.464 265.379 115.233 264.757 122.344L242.056 381.596C241.434 388.708 246.7 394.476 253.819 394.476H378.345C385.464 394.476 391.747 388.708 392.368 381.596L415.07 122.344C415.691 115.233 410.426 109.464 403.307 109.464H403.284Z" fill="white"/>
<path d="M372.255 250.3H285.11C282.522 250.3 280.612 248.211 280.838 245.626L281.279 240.648C281.505 238.063 283.788 235.974 286.364 235.974H373.51C376.097 235.974 378.007 238.063 377.781 240.648L377.34 245.626C377.114 248.211 374.832 250.3 372.255 250.3Z" fill="white"/>
<path d="M370.379 271.793H283.233C280.645 271.793 278.736 269.705 278.962 267.119L279.402 262.141C279.628 259.556 281.911 257.468 284.487 257.468H371.633C374.22 257.468 376.13 259.556 375.904 262.141L375.464 267.119C375.238 269.705 372.955 271.793 370.379 271.793Z" fill="white"/>
<path opacity="0.1" d="M345.778 114.33C345.529 117.197 342.998 119.511 340.139 119.511C337.28 119.511 335.156 117.186 335.405 114.33C335.653 111.462 338.184 109.148 341.043 109.148C343.902 109.148 346.027 111.474 345.778 114.33Z" fill="black"/>
<path opacity="0.1" d="M343.428 114.33C343.292 115.899 341.913 117.163 340.343 117.163C338.772 117.163 337.619 115.899 337.755 114.33C337.891 112.76 339.269 111.496 340.84 111.496C342.411 111.496 343.563 112.76 343.428 114.33Z" fill="black"/>
<g opacity="0.8">
<path d="M387.952 122.965C387.115 122.965 386.494 122.288 386.562 121.441L386.81 118.664C386.889 117.829 387.624 117.14 388.46 117.14C389.296 117.14 389.918 117.818 389.85 118.664L389.601 121.441C389.522 122.277 388.788 122.965 387.952 122.965Z" fill="white"/>
<path d="M400.11 122.965C399.274 122.965 398.652 122.288 398.72 121.441L399.285 114.928C399.353 114.093 400.099 113.404 400.935 113.404C401.771 113.404 402.392 114.081 402.325 114.928L401.76 121.441C401.692 122.277 400.946 122.965 400.11 122.965Z" fill="white"/>
<path d="M394.032 122.965C393.195 122.965 392.574 122.288 392.642 121.441L393.049 116.802C393.128 115.966 393.862 115.278 394.698 115.278C395.535 115.278 396.156 115.955 396.088 116.802L395.681 121.441C395.614 122.277 394.868 122.965 394.032 122.965Z" fill="white"/>
</g>
<g opacity="0.8">
<path d="M283.844 122.965H276.206C275.731 122.965 275.381 122.581 275.426 122.107L275.787 118.01C275.833 117.536 276.251 117.152 276.725 117.152H284.364C284.839 117.152 285.189 117.536 285.144 118.01L284.782 122.107C284.737 122.581 284.319 122.965 283.844 122.965Z" fill="white"/>
<path d="M287.381 121.859C286.907 121.859 286.556 121.475 286.602 121.001L286.771 119.127C286.816 118.653 287.234 118.269 287.709 118.269C288.184 118.269 288.534 118.653 288.489 119.127L288.319 121.001C288.274 121.475 287.856 121.859 287.381 121.859Z" fill="white"/>
</g>
<path d="M357.896 217.537C373.102 202.995 374.619 179.925 361.283 166.009C347.948 152.093 324.811 152.601 309.605 167.143C294.399 181.684 292.883 204.754 306.218 218.67C319.553 232.586 342.69 232.078 357.896 217.537Z" fill="white"/>
<path d="M333.88 190.945C324.287 190.945 316.196 194.591 315.507 202.504L314.738 211.287H349.463L350.232 202.504C350.921 194.591 343.474 190.945 333.88 190.945Z" fill="#407BFF"/>
<path d="M334.197 187.321C338.649 187.321 340.694 183.72 341.09 179.272C341.474 174.825 340.062 171.224 335.609 171.224C331.157 171.224 329.112 174.825 328.716 179.272C328.332 183.72 329.745 187.321 334.197 187.321Z" fill="#407BFF"/>
<path d="M368.278 242.872C365.905 242.872 363.916 243.775 363.735 245.728L363.543 247.895H372.12L372.312 245.728C372.481 243.775 370.639 242.872 368.278 242.872Z" fill="#407BFF"/>
<path d="M368.357 241.98C369.453 241.98 369.961 241.088 370.063 239.993C370.165 238.898 369.803 238.006 368.707 238.006C367.611 238.006 367.102 238.898 367.001 239.993C366.899 241.088 367.261 241.98 368.357 241.98Z" fill="#407BFF"/>
<path d="M341.869 293.286H307.958C303.992 293.286 301.065 290.08 301.415 286.118C301.765 282.156 305.257 278.95 309.212 278.95H343.123C347.09 278.95 350.016 282.156 349.666 286.118C349.316 290.08 345.824 293.286 341.869 293.286Z" fill="#407BFF"/>
<path d="M337.779 373.175H301.483C297.302 373.175 294.206 369.788 294.568 365.6L296.884 339.151C297.246 334.975 300.941 331.577 305.122 331.577H341.418C345.599 331.577 348.695 334.963 348.333 339.151L346.017 365.6C345.655 369.777 341.96 373.175 337.779 373.175Z" fill="#407BFF"/>
<g opacity="0.6">
<path d="M326.591 345.845C326.805 343.328 324.952 341.285 322.432 341.285C319.912 341.285 317.698 343.328 317.472 345.845C317.336 347.347 317.957 348.656 319.008 349.492L318.206 358.602C318.07 360.092 319.178 361.311 320.681 361.311C322.184 361.311 323.494 360.103 323.63 358.602L324.432 349.492C325.619 348.656 326.466 347.347 326.602 345.845H326.591Z" fill="white"/>
</g>
<path d="M341.746 337.097H337.067L338.209 324.014C338.898 316.157 333.056 309.756 325.18 309.756C317.304 309.756 310.343 316.157 309.654 324.014L308.512 337.097H303.834L304.975 324.014C305.891 313.572 315.134 305.083 325.586 305.083C336.039 305.083 343.791 313.572 342.876 324.014L341.734 337.097H341.746Z" fill="#407BFF"/>
<path d="M368.853 262.909L368.966 261.656C369.079 260.369 368.13 259.33 366.842 259.33C365.554 259.33 364.424 260.369 364.311 261.656L364.198 262.909C363.689 262.909 363.237 263.327 363.192 263.835L362.898 267.176C362.853 267.684 363.237 268.102 363.746 268.102H368.401C368.91 268.102 369.362 267.684 369.407 267.176L369.701 263.835C369.746 263.327 369.362 262.909 368.853 262.909ZM366.785 259.906C367.757 259.906 368.469 260.696 368.39 261.656L368.277 262.909H364.774L364.887 261.656C364.966 260.685 365.825 259.906 366.797 259.906H366.785Z" fill="#407BFF"/>
<path d="M298.771 264.252L297.144 263.914C296.952 263.868 296.85 263.676 296.929 263.485L297.607 261.882C297.754 261.543 297.336 261.283 297.076 261.554L295.845 262.819C295.698 262.965 295.46 262.965 295.347 262.819L294.342 261.554C294.127 261.283 293.664 261.532 293.754 261.882L294.15 263.485C294.195 263.676 294.059 263.88 293.867 263.914L292.183 264.252C291.822 264.32 291.776 264.828 292.127 264.907L293.754 265.246C293.946 265.291 294.048 265.483 293.969 265.675L293.291 267.278C293.144 267.616 293.562 267.876 293.822 267.605L295.053 266.341C295.2 266.194 295.438 266.194 295.551 266.341L296.556 267.605C296.771 267.876 297.234 267.627 297.144 267.278L296.748 265.675C296.703 265.483 296.839 265.279 297.031 265.246L298.715 264.907C299.076 264.839 299.122 264.331 298.771 264.252Z" fill="#263238"/>
<path d="M309.461 264.252L307.833 263.914C307.641 263.868 307.54 263.676 307.619 263.485L308.297 261.882C308.444 261.543 308.026 261.283 307.766 261.554L306.534 262.819C306.387 262.965 306.15 262.965 306.037 262.819L305.031 261.554C304.816 261.283 304.353 261.532 304.443 261.882L304.839 263.485C304.884 263.676 304.749 263.88 304.556 263.914L302.873 264.252C302.511 264.32 302.466 264.828 302.816 264.907L304.443 265.246C304.636 265.291 304.737 265.483 304.658 265.675L303.98 267.278C303.833 267.616 304.251 267.876 304.511 267.605L305.743 266.341C305.89 266.194 306.127 266.194 306.24 266.341L307.246 267.605C307.461 267.876 307.924 267.627 307.833 267.278L307.438 265.675C307.393 265.483 307.528 265.279 307.72 265.246L309.404 264.907C309.766 264.839 309.811 264.331 309.461 264.252Z" fill="#263238"/>
<path d="M320.15 264.252L318.523 263.914C318.331 263.868 318.229 263.676 318.308 263.485L318.986 261.882C319.133 261.543 318.715 261.283 318.455 261.554L317.223 262.819C317.076 262.965 316.839 262.965 316.726 262.819L315.72 261.554C315.506 261.283 315.042 261.532 315.133 261.882L315.528 263.485C315.574 263.676 315.438 263.88 315.246 263.914L313.562 264.252C313.201 264.32 313.155 264.828 313.506 264.907L315.133 265.246C315.325 265.291 315.427 265.483 315.348 265.675L314.67 267.278C314.523 267.616 314.941 267.876 315.201 267.605L316.432 266.341C316.579 266.194 316.817 266.194 316.93 266.341L317.935 267.605C318.15 267.876 318.613 267.627 318.523 267.278L318.127 265.675C318.082 265.483 318.218 265.279 318.41 265.246L320.094 264.907C320.455 264.839 320.5 264.331 320.15 264.252Z" fill="#263238"/>
<path d="M330.851 264.252L329.224 263.914C329.032 263.868 328.93 263.676 329.009 263.485L329.687 261.882C329.834 261.543 329.416 261.283 329.156 261.554L327.925 262.819C327.778 262.965 327.54 262.965 327.427 262.819L326.422 261.554C326.207 261.283 325.744 261.532 325.834 261.882L326.23 263.485C326.275 263.676 326.139 263.88 325.947 263.914L324.263 264.252C323.902 264.32 323.857 264.828 324.207 264.907L325.834 265.246C326.026 265.291 326.128 265.483 326.049 265.675L325.371 267.278C325.224 267.616 325.642 267.876 325.902 267.605L327.134 266.341C327.28 266.194 327.518 266.194 327.631 266.341L328.636 267.605C328.851 267.876 329.314 267.627 329.224 267.278L328.829 265.675C328.783 265.483 328.919 265.279 329.111 265.246L330.795 264.907C331.156 264.839 331.202 264.331 330.851 264.252Z" fill="#263238"/>
<path d="M341.541 264.252L339.914 263.914C339.721 263.868 339.62 263.676 339.699 263.485L340.377 261.882C340.524 261.543 340.106 261.283 339.846 261.554L338.614 262.819C338.467 262.965 338.23 262.965 338.117 262.819L337.111 261.554C336.896 261.283 336.433 261.532 336.524 261.882L336.919 263.485C336.964 263.676 336.829 263.88 336.637 263.914L334.953 264.252C334.591 264.32 334.546 264.828 334.896 264.907L336.524 265.246C336.716 265.291 336.817 265.483 336.738 265.675L336.06 267.278C335.913 267.616 336.331 267.876 336.591 267.605L337.823 266.341C337.97 266.194 338.207 266.194 338.32 266.341L339.326 267.605C339.541 267.876 340.004 267.627 339.914 267.278L339.518 265.675C339.473 265.483 339.608 265.279 339.801 265.246L341.484 264.907C341.846 264.839 341.891 264.331 341.541 264.252Z" fill="#263238"/>
<path d="M352.232 264.252L350.605 263.914C350.413 263.868 350.311 263.676 350.39 263.485L351.068 261.882C351.215 261.543 350.797 261.283 350.537 261.554L349.305 262.819C349.159 262.965 348.921 262.965 348.808 262.819L347.803 261.554C347.588 261.283 347.125 261.532 347.215 261.882L347.61 263.485C347.656 263.676 347.52 263.88 347.328 263.914L345.644 264.252C345.283 264.32 345.237 264.828 345.588 264.907L347.215 265.246C347.407 265.291 347.509 265.483 347.43 265.675L346.752 267.278C346.605 267.616 347.023 267.876 347.283 267.605L348.514 266.341C348.661 266.194 348.899 266.194 349.012 266.341L350.017 267.605C350.232 267.876 350.695 267.627 350.605 267.278L350.209 265.675C350.164 265.483 350.3 265.279 350.492 265.246L352.176 264.907C352.537 264.839 352.582 264.331 352.232 264.252Z" fill="#263238"/>
<path d="M326.456 240.874H306.375C305.132 240.874 304.025 241.89 303.923 243.131C303.81 244.373 304.737 245.389 305.98 245.389H326.06C327.303 245.389 328.411 244.373 328.512 243.131C328.625 241.89 327.699 240.874 326.456 240.874Z" fill="#263238"/>
<path d="M346.84 240.874H335.19C333.947 240.874 332.84 241.89 332.738 243.131C332.625 244.373 333.551 245.389 334.794 245.389H346.445C347.688 245.389 348.795 244.373 348.897 243.131C349.01 241.89 348.083 240.874 346.84 240.874Z" fill="#263238"/>
<path d="M362.219 343.204C354.648 346.229 348.015 350.632 343.473 355.633C340.806 353.364 337.02 351.795 332.489 351.072L331.958 350.993L331.721 353.657L332.014 353.77C336.489 355.463 340.139 358.466 342.557 362.451L342.942 363.072L343.36 362.406C348.015 354.955 354.807 348.724 362.479 344.841L362.739 344.705L362.897 342.933L362.231 343.204H362.219Z" fill="#263238"/>
<path opacity="0.2" d="M261.245 120.945C259.833 123.428 258.906 126.194 258.646 129.129L241.82 321.282H293.891L304.355 281.219L300.908 241.156L311.372 201.093L307.925 161.03L318.389 120.967H261.256L261.245 120.945Z" fill="black"/>
<path d="M303.405 149.719L313.869 109.656H182.19L171.738 149.719L175.173 189.793L164.72 229.856L168.156 269.919L157.703 309.993H289.371L299.835 269.919L296.388 229.856L306.852 189.793L303.405 149.719Z" fill="#407BFF"/>
<path opacity="0.7" d="M303.405 149.719L313.869 109.656H182.19L171.738 149.719L175.173 189.793L164.72 229.856L168.156 269.919L157.703 309.993H289.371L299.835 269.919L296.388 229.856L306.852 189.793L303.405 149.719Z" fill="white"/>
<path opacity="0.5" d="M303.406 149.719H171.738L182.191 109.656H313.87L303.406 149.719Z" fill="white"/>
<path opacity="0.5" d="M296.388 229.856H164.721L175.173 189.793H306.852L296.388 229.856Z" fill="white"/>
<path opacity="0.5" d="M289.371 309.993H157.703L168.156 269.919H299.835L289.371 309.993Z" fill="white"/>
<path opacity="0.2" d="M285.788 166.471C284.658 166.821 283.212 167.036 281.63 167.036C279.302 167.036 277.268 166.573 276.104 165.884C275.788 165.692 275.437 165.602 275.087 165.602C274.759 165.602 274.443 165.692 274.138 165.862C274.115 165.873 274.093 165.873 274.07 165.895C274.07 165.895 274.047 165.907 274.025 165.918C273.595 166.166 273.053 166.392 272.42 166.561C271.335 166.866 269.991 167.047 268.544 167.047C268.149 167.047 267.765 167.036 267.392 167.013C266.262 166.934 265.233 166.753 264.386 166.482C264.239 166.437 264.092 166.403 263.945 166.403C262.917 166.336 262.002 167.126 262.002 168.21V169.429H210.824C206.858 169.429 203.648 172.635 203.648 176.597V183.822C203.648 187.784 206.858 190.99 210.824 190.99H269.053C269.177 190.99 269.301 190.979 269.437 190.967C270.07 191.486 270.714 192.006 271.415 192.525C272.239 193.157 273.121 193.789 274.036 194.455C274.669 194.918 275.55 194.918 276.183 194.455C283.506 189.15 288.206 185.492 288.206 175.434V168.21C288.206 166.968 286.997 166.121 285.822 166.494L285.788 166.471Z" fill="black"/>
<path d="M267.913 165.433H209.695C205.732 165.433 202.52 168.642 202.52 172.601V179.814C202.52 183.773 205.732 186.982 209.695 186.982H267.913C271.876 186.982 275.088 183.773 275.088 179.814V172.601C275.088 168.642 271.876 165.433 267.913 165.433Z" fill="#407BFF"/>
<path d="M280.513 163.051C278.185 163.051 276.151 162.588 274.987 161.899C274.354 161.516 273.586 161.516 272.953 161.899C271.789 162.588 269.744 163.051 267.427 163.051C265.845 163.051 264.399 162.836 263.269 162.486C262.083 162.114 260.885 162.972 260.885 164.202V171.427C260.885 181.485 265.586 185.142 272.908 190.448C273.541 190.911 274.422 190.911 275.055 190.448C282.377 185.142 287.078 181.485 287.078 171.427V164.202C287.078 162.96 285.869 162.114 284.694 162.486C283.564 162.836 282.117 163.051 280.535 163.051H280.513Z" fill="#407BFF"/>
<path opacity="0.3" d="M280.513 163.051C278.185 163.051 276.151 162.588 274.987 161.899C274.354 161.516 273.586 161.516 272.953 161.899C271.789 162.588 269.744 163.051 267.427 163.051C265.845 163.051 264.399 162.836 263.269 162.486C262.083 162.114 260.885 162.972 260.885 164.202V171.427C260.885 181.485 265.586 185.142 272.908 190.448C273.541 190.911 274.422 190.911 275.055 190.448C282.377 185.142 287.078 181.485 287.078 171.427V164.202C287.078 162.96 285.869 162.114 284.694 162.486C283.564 162.836 282.117 163.051 280.535 163.051H280.513Z" fill="white"/>
<path opacity="0.2" d="M272.953 161.899C271.789 162.588 269.744 163.051 267.427 163.051C265.845 163.051 264.399 162.836 263.269 162.486C262.083 162.114 260.885 162.972 260.885 164.202V171.427C260.885 181.485 265.586 185.142 272.908 190.448C273.224 190.674 273.609 190.798 273.981 190.798V161.617C273.631 161.617 273.281 161.707 272.964 161.899H272.953Z" fill="white"/>
<path d="M284.468 169.463C279.733 171.416 275.687 174.272 273.032 177.511C271.179 176.044 268.636 175.028 265.653 174.565L265.303 174.509V176.236L265.506 176.303C268.501 177.398 271.032 179.34 272.829 181.925L273.111 182.332L273.348 181.891C275.936 177.071 279.981 173.03 284.727 170.512L284.886 170.422V169.271L284.468 169.44V169.463Z" fill="#263238"/>
<path d="M311.541 120.922H306.546C303.778 120.922 301.721 118.676 301.97 115.91L302.41 110.92C302.648 108.155 305.1 105.908 307.868 105.908H312.863C315.631 105.908 317.688 108.155 317.439 110.92L316.999 115.91C316.761 118.676 314.309 120.922 311.541 120.922Z" fill="#407BFF"/>
<path d="M313.62 110.909L312.535 109.724L309.801 112.23L307.518 109.724L306.218 110.909L308.512 113.415L305.789 115.921L306.874 117.118L309.597 114.612L311.891 117.118L313.179 115.921L310.885 113.415L313.62 110.909Z" fill="white"/>
<path d="M199.92 163.976C202.813 167.126 205.581 170.377 208.316 173.673C211.05 176.958 213.717 180.3 216.35 183.675C216.463 183.822 216.418 183.765 216.452 183.81C216.463 183.833 216.463 183.867 216.486 183.878C216.519 183.912 216.531 183.968 216.565 183.991C216.621 184.07 216.689 184.138 216.768 184.217C216.926 184.363 217.152 184.465 217.39 184.51C217.514 184.533 217.638 184.544 217.774 184.533C217.842 184.533 217.909 184.521 217.977 184.521C218.011 184.521 218.045 184.499 218.079 184.499C218.135 184.476 218.101 184.521 218.26 184.431L221.085 182.896C224.881 180.887 228.712 178.922 232.667 177.161L235.978 181.259C232.791 184.194 229.469 187.852 226.113 190.538L223.582 192.525C223.514 192.581 223.243 192.762 223.073 192.875C222.881 192.999 222.689 193.135 222.486 193.248C222.079 193.473 221.661 193.699 221.22 193.868C220.35 194.241 219.424 194.478 218.486 194.625C216.599 194.907 214.644 194.715 212.813 194.06C211.898 193.733 211.016 193.293 210.214 192.74C209.807 192.469 209.423 192.164 209.05 191.848C208.858 191.69 208.689 191.52 208.519 191.351L208.067 190.899C205.073 187.84 202.123 184.747 199.23 181.586C196.338 178.437 193.479 175.254 190.744 171.969L199.908 163.976H199.92Z" fill="#B55B52"/>
<path d="M231.131 179.656L233.764 171.201L240.702 174.655C240.702 174.655 239.696 180.819 234.645 181.891L231.131 179.656Z" fill="#B55B52"/>
<path d="M236.543 168.864L242.804 170.58L240.702 174.655L233.764 171.201L236.543 168.864Z" fill="#B55B52"/>
<path d="M163.442 166.279C162.685 169.869 161.77 173.425 160.798 176.958C159.837 180.503 158.786 184.025 157.69 187.524L157.284 188.845L157.08 189.5C157.035 189.646 157.012 189.68 156.967 189.771C156.843 190.098 156.764 190.459 156.752 190.843C156.73 191.599 156.911 192.435 157.408 193.157C157.453 193.27 157.837 193.688 158.142 194.015L159.08 195.031L160.933 197.097C162.154 198.497 163.363 199.896 164.516 201.364L160.583 205.913C158.956 204.988 157.397 203.994 155.837 202.989L153.521 201.466L152.379 200.687C151.995 200.416 151.679 200.235 151.057 199.716C148.91 197.898 147.306 195.313 146.718 192.435C146.413 191.001 146.345 189.511 146.515 188.032C146.56 187.682 146.628 187.265 146.684 186.96L146.808 186.282L147.046 184.928C147.679 181.304 148.357 177.692 149.114 174.113C149.871 170.524 150.673 166.945 151.645 163.401L163.465 166.257L163.442 166.279Z" fill="#B55B52"/>
<path d="M160.662 201.059L165.329 198.677L167.386 206.59C167.386 206.59 163.645 208.024 160.753 206.184L160.673 201.059H160.662Z" fill="#B55B52"/>
<path d="M171.76 196.149L171.974 203.407L166.765 206.816L164.957 198.835L171.76 196.149Z" fill="#B55B52"/>
<path d="M187.004 128.959C187.117 129.524 187.501 129.908 187.874 129.84C188.236 129.761 188.45 129.253 188.326 128.689C188.202 128.124 187.817 127.74 187.456 127.808C187.094 127.887 186.891 128.395 187.004 128.959Z" fill="#263238"/>
<path d="M187.455 129.919C187.455 129.919 189.387 132.888 191.105 134.163C190.303 135.292 188.529 135.213 188.529 135.213L187.455 129.93V129.919Z" fill="#A02724"/>
<path d="M184.325 126.262C184.246 126.262 184.167 126.228 184.099 126.171C183.964 126.047 183.953 125.833 184.077 125.697C185.342 124.331 186.868 124.58 186.936 124.591C187.117 124.625 187.241 124.794 187.207 124.975C187.173 125.155 187.004 125.279 186.823 125.246C186.823 125.246 185.58 125.065 184.574 126.149C184.506 126.216 184.416 126.262 184.325 126.262Z" fill="#263238"/>
<path d="M170.709 136.828C171.952 142.009 173.195 151.491 168.754 154.946C168.754 154.946 170.494 160.195 182.314 160.195C195.309 160.195 188.529 156.808 188.529 156.808C181.433 155.431 181.625 149.279 182.856 145.249L170.72 136.816L170.709 136.828Z" fill="#B55B52"/>
<path d="M167.364 155.905C166.585 154.472 165.737 152.823 167.5 152.304C169.444 151.74 181.908 150.69 185.569 151.751C184.439 153.749 186.348 156.21 186.348 156.21L167.364 155.905Z" fill="#263238"/>
<path d="M177.691 398.134H185.839L186.652 381.743H178.494L177.691 398.134Z" fill="#B55B52"/>
<path d="M125.949 395.876L134.21 396.305L139.227 380.162L130.966 379.722L125.949 395.876Z" fill="#B55B52"/>
<path d="M133.961 395.65L126.187 393.968C125.904 393.912 125.61 394.047 125.497 394.318L122.797 400.166C122.514 400.775 122.887 401.486 123.542 401.611C126.266 402.153 127.622 402.277 131.046 403.022C133.147 403.473 137.905 404.636 140.809 405.257C143.656 405.866 144.719 403.101 143.589 402.581C138.504 400.256 136.379 398.224 135.012 396.316C134.763 395.978 134.39 395.741 133.984 395.65H133.961Z" fill="#263238"/>
<path d="M185.409 397.31H177.669C177.375 397.31 177.126 397.513 177.07 397.795L175.668 404.083C175.522 404.738 176.019 405.358 176.685 405.347C179.477 405.302 183.511 405.133 187.014 405.133C191.116 405.133 194.664 405.358 199.466 405.358C202.37 405.358 203.184 402.423 201.964 402.153C196.415 400.945 191.895 400.809 187.104 397.863C186.584 397.547 186.008 397.31 185.398 397.31H185.409Z" fill="#263238"/>
<path d="M153.984 157.339C147.825 160.263 146.164 177.974 146.164 177.974L161.385 184.996C161.385 184.996 165.159 179.43 165.453 170.693C165.758 161.538 160.278 154.336 153.995 157.327L153.984 157.339Z" fill="#263238"/>
<path opacity="0.4" d="M162.246 168.266C159.5 172.522 159.76 179.126 160.709 184.691L161.387 185.007C161.387 185.007 165.173 179.442 165.455 170.704C165.466 170.163 165.466 169.621 165.455 169.09L162.246 168.266Z" fill="black"/>
<path d="M196.461 156.91C196.461 156.91 203.998 165.421 196.879 218.082H158.978C158.719 212.269 162.368 183.923 156.764 156.537C156.764 156.537 163.261 155.239 169.454 154.934C174.301 154.697 181.307 154.551 185.567 154.934C191.183 155.442 196.461 156.899 196.461 156.899V156.91Z" fill="#407BFF"/>
<path opacity="0.6" d="M196.461 156.91C196.461 156.91 203.998 165.421 196.879 218.082H158.978C158.719 212.269 162.368 183.923 156.764 156.537C156.764 156.537 163.261 155.239 169.454 154.934C174.301 154.697 181.307 154.551 185.567 154.934C191.183 155.442 196.461 156.899 196.461 156.899V156.91Z" fill="#FAFAFA"/>
<path opacity="0.2" d="M199.772 173.007L199.625 172.883L192.088 168.864C191.32 180.458 196.507 187.727 199.592 190.899C200.021 183.472 200.01 177.613 199.761 173.007H199.772Z" fill="black"/>
<path opacity="0.2" d="M186.653 381.743L186.235 390.187H178.076L178.494 381.743H186.653Z" fill="black"/>
<path opacity="0.2" d="M130.967 379.722L139.227 380.162L136.639 388.482L128.379 388.053L130.967 379.722Z" fill="black"/>
<path d="M168.086 131.567C169.905 138.352 170.629 142.415 174.821 145.238C181.126 149.482 188.98 144.605 189.217 137.415C189.443 130.946 186.426 120.933 179.137 119.567C171.962 118.224 166.267 124.783 168.086 131.567Z" fill="#B55B52"/>
<path d="M183.444 218.093C183.444 218.093 175.399 272.188 170.992 292.451C166.155 314.644 140.233 388.064 140.233 388.064L127.555 385.321C127.555 385.321 143.804 325.492 147.861 294.46C149.443 282.359 151.352 262.841 153.771 246.563C156.11 230.804 158.991 218.093 158.991 218.093H183.444Z" fill="#263238"/>
<path d="M143.272 383.82L140.911 388.403L126.639 385.321L127.836 381.032L143.272 383.82Z" fill="#407BFF"/>
<path opacity="0.6" d="M143.272 383.82L140.911 388.403L126.639 385.321L127.836 381.032L143.272 383.82Z" fill="white"/>
<path opacity="0.6" d="M178.359 237.363C169.059 239.18 170.042 273.825 171.161 291.638C173.839 279.04 177.771 254.815 180.449 237.611C179.828 237.307 179.139 237.205 178.359 237.363Z" fill="black"/>
<path d="M196.879 218.093C196.879 218.093 200.665 271.014 199.885 292.598C199.083 315.05 188.427 388.561 188.427 388.561H176.426C176.426 388.561 175.986 316.36 175.455 294.313C174.867 270.28 171.963 218.093 171.963 218.093H196.868H196.879Z" fill="#263238"/>
<path d="M190.743 383.775L190.065 388.753H175.466L175.07 384.305L190.743 383.775Z" fill="#407BFF"/>
<path opacity="0.6" d="M190.743 383.775L190.065 388.753H175.466L175.07 384.305L190.743 383.775Z" fill="white"/>
<path d="M192.043 166.821C192.043 181.022 199.614 186.87 199.614 186.87L211.908 174.859C211.908 174.859 207.727 167.668 201.976 161.053C194.868 152.891 192.043 157.677 192.043 166.821Z" fill="#263238"/>
<path opacity="0.2" d="M188.789 139.988C188.472 140.858 187.659 142.336 185.602 142.923C182.596 143.781 182.562 146.321 182.562 146.321L182.596 146.366C185.455 145.418 187.84 143.059 188.789 139.988Z" fill="black"/>
<path d="M185.602 118.077C188.133 114.883 184.235 114.736 184.235 114.736C185.252 110.932 180.687 112.975 180.687 112.975C177.952 109.205 176.404 113.788 176.404 113.788C173.568 110.593 173.048 115.808 173.048 115.808C170.2 111.756 168.754 117.603 168.754 117.603C166.132 113.393 164.528 118.879 164.528 118.879C159.115 116.949 161.691 122.559 161.691 122.559C157.07 122.683 160.776 126.262 160.776 126.262C155.239 126.273 160.121 129.445 160.121 129.445C155.725 132.323 161.239 133.102 161.239 133.102C157.657 138.701 163.816 136.624 163.816 136.624C161.318 142.167 166.855 139.729 166.855 139.729C166.494 145.079 169.59 143.623 171.082 142.63C171.364 143.702 171.906 144.854 172.901 144.978C174.833 145.226 175.206 141.591 175.206 141.591C175.206 141.591 177.003 142.98 178.494 142.223C179.997 141.467 179.432 139.559 179.432 139.559C179.432 139.559 180.585 140.417 181.636 139.593C182.28 139.097 182.28 135.496 181.466 134.231L184.404 133.08C184.404 133.08 186.585 132.775 185.613 129.896C184.642 127.018 185.466 124.749 185.466 124.749C188.789 123.191 186.065 121.328 186.065 121.328C189.907 118.845 185.613 118.055 185.613 118.055L185.602 118.077Z" fill="#263238"/>
<path d="M179.647 131.849C180.11 133.633 181.285 135.157 182.506 136.071C184.348 137.437 185.726 136.094 185.591 134.005C185.478 132.132 184.37 129.151 182.336 128.598C180.336 128.045 179.116 129.806 179.635 131.849H179.647Z" fill="#B55B52"/>
</g>
<defs>
<clipPath id="clip0_2751_6677">
<rect width="565" height="420" fill="white" transform="translate(0.621094 0.812408)"/>
</clipPath>
</defs>
</svg>
