<svg width="35" height="35" viewBox="0 0 35 35" fill="none" xmlns="http://www.w3.org/2000/svg">
<path d="M27.4226 18.1021C27.4226 17.4142 27.356 16.7042 27.2451 16.0385H17.6367V19.9661H23.1399C22.918 21.231 22.1857 22.3405 21.0984 23.0505L24.3825 25.6024C26.3131 23.805 27.4226 21.1866 27.4226 18.1021Z" fill="#4280EF"/>
<path d="M17.637 28.0433C20.3886 28.0433 22.6964 27.1335 24.3828 25.5801L21.0987 23.0505C20.1889 23.6718 19.0128 24.0268 17.637 24.0268C14.9742 24.0268 12.733 22.2294 11.912 19.8329L8.53906 22.4291C10.2699 25.8686 13.7759 28.0433 17.637 28.0433Z" fill="#34A353"/>
<path d="M11.9117 19.8108C11.4901 18.5459 11.4901 17.1701 11.9117 15.9053L8.5388 13.2869C7.09644 16.1716 7.09644 19.5667 8.5388 22.4292L11.9117 19.8108Z" fill="#F6B704"/>
<path d="M17.637 11.7114C19.0794 11.6892 20.4996 12.244 21.5425 13.2425L24.4494 10.3134C22.6076 8.58261 20.1667 7.65062 17.637 7.67281C13.7759 7.67281 10.2699 9.84745 8.53906 13.2869L11.912 15.9054C12.733 13.4866 14.9742 11.7114 17.637 11.7114Z" fill="#E54335"/>
</svg>
