<svg width="25" height="24" viewBox="0 0 25 24" fill="none" xmlns="http://www.w3.org/2000/svg">
<path d="M15.0319 9.46992L9.97188 14.5299C9.32188 13.8799 8.92188 12.9899 8.92188 11.9999C8.92188 10.0199 10.5219 8.41992 12.5019 8.41992C13.4919 8.41992 14.3819 8.81992 15.0319 9.46992Z" stroke="#292D32" stroke-width="1.5" stroke-linecap="round" stroke-linejoin="round"/>
<path d="M18.3198 5.77047C16.5698 4.45047 14.5698 3.73047 12.4998 3.73047C8.96984 3.73047 5.67984 5.81047 3.38984 9.41047C2.48984 10.8205 2.48984 13.1905 3.38984 14.6005C4.17984 15.8405 5.09984 16.9105 6.09984 17.7705" stroke="#292D32" stroke-width="1.5" stroke-linecap="round" stroke-linejoin="round"/>
<path d="M8.92188 19.5297C10.0619 20.0097 11.2719 20.2697 12.5019 20.2697C16.0319 20.2697 19.3219 18.1897 21.6119 14.5897C22.5119 13.1797 22.5119 10.8097 21.6119 9.39969C21.2819 8.87969 20.9219 8.38969 20.5519 7.92969" stroke="#292D32" stroke-width="1.5" stroke-linecap="round" stroke-linejoin="round"/>
<path d="M16.0114 12.6992C15.7514 14.1092 14.6014 15.2592 13.1914 15.5192" stroke="#292D32" stroke-width="1.5" stroke-linecap="round" stroke-linejoin="round"/>
<path d="M9.97 14.5293L2.5 21.9993" stroke="#292D32" stroke-width="1.5" stroke-linecap="round" stroke-linejoin="round"/>
<path d="M22.5013 2L15.0312 9.47" stroke="#292D32" stroke-width="1.5" stroke-linecap="round" stroke-linejoin="round"/>
</svg>
